<svg width="52" height="51" viewBox="0 0 52 51" fill="none" xmlns="http://www.w3.org/2000/svg">
<circle cx="25.921" cy="25.2632" r="24.5614" stroke="#6D7D7D" stroke-width="1.40351"/>
<path d="M25.9247 20.8505C23.484 20.8505 21.5152 22.8192 21.5152 25.26C21.5152 27.7008 23.484 29.6696 25.9247 29.6696C28.3655 29.6696 30.3343 27.7008 30.3343 25.26C30.3343 22.8192 28.3655 20.8505 25.9247 20.8505ZM25.9247 28.1268C24.3474 28.1268 23.058 26.8412 23.058 25.26C23.058 23.6789 24.3436 22.3932 25.9247 22.3932C27.5059 22.3932 28.7915 23.6789 28.7915 25.26C28.7915 26.8412 27.502 28.1268 25.9247 28.1268ZM31.5432 20.6701C31.5432 21.2419 31.0826 21.6986 30.5147 21.6986C29.9428 21.6986 29.4861 21.2381 29.4861 20.6701C29.4861 20.1021 29.9467 19.6416 30.5147 19.6416C31.0826 19.6416 31.5432 20.1021 31.5432 20.6701ZM34.4637 21.714C34.3984 20.3362 34.0837 19.1158 33.0744 18.1103C32.0689 17.1049 30.8485 16.7902 29.4708 16.7211C28.0508 16.6405 23.7948 16.6405 22.3749 16.7211C21.0009 16.7863 19.7806 17.101 18.7712 18.1065C17.7619 19.112 17.4511 20.3324 17.382 21.7101C17.3014 23.1301 17.3014 27.3861 17.382 28.8061C17.4472 30.1838 17.7619 31.4042 18.7712 32.4097C19.7806 33.4152 20.9971 33.7299 22.3749 33.7989C23.7948 33.8795 28.0508 33.8795 29.4708 33.7989C30.8485 33.7337 32.0689 33.419 33.0744 32.4097C34.0799 31.4042 34.3946 30.1838 34.4637 28.8061C34.5443 27.3861 34.5443 23.1339 34.4637 21.714ZM32.6292 30.3296C32.3299 31.0818 31.7504 31.6613 30.9944 31.9645C29.8622 32.4135 27.1758 32.3099 25.9247 32.3099C24.6736 32.3099 21.9834 32.4097 20.8551 31.9645C20.1029 31.6652 19.5234 31.0857 19.2202 30.3296C18.7712 29.1975 18.8749 26.5111 18.8749 25.26C18.8749 24.0089 18.7751 21.3187 19.2202 20.1904C19.5196 19.4382 20.0991 18.8587 20.8551 18.5555C21.9872 18.1065 24.6736 18.2101 25.9247 18.2101C27.1758 18.2101 29.8661 18.1103 30.9944 18.5555C31.7466 18.8549 32.3261 19.4344 32.6292 20.1904C33.0782 21.3225 32.9746 24.0089 32.9746 25.26C32.9746 26.5111 33.0782 29.2014 32.6292 30.3296Z" fill="#202020"/>
</svg>
