<svg width="51" height="51" viewBox="0 0 51 51" fill="none" xmlns="http://www.w3.org/2000/svg">
<circle cx="25.3246" cy="25.2632" r="24.5614" stroke="#6D7D7D" stroke-width="1.40351"/>
<g clip-path="url(#clip0_0_159)">
<path d="M20.5765 32.6335H17.012V21.1549H20.5765V32.6335ZM18.7923 19.5891C17.6525 19.5891 16.728 18.645 16.728 17.5052C16.728 16.9577 16.9455 16.4327 17.3326 16.0455C17.7198 15.6584 18.2448 15.4409 18.7923 15.4409C19.3398 15.4409 19.8649 15.6584 20.252 16.0455C20.6392 16.4327 20.8566 16.9577 20.8566 17.5052C20.8566 18.645 19.9318 19.5891 18.7923 19.5891ZM33.9172 32.6335H30.3604V27.0458C30.3604 25.7141 30.3335 24.0063 28.5071 24.0063C26.6539 24.0063 26.3699 25.4531 26.3699 26.9499V32.6335H22.8093V21.1549H26.2279V22.7207H26.2778C26.7537 21.8188 27.9161 20.8671 29.6504 20.8671C33.2579 20.8671 33.921 23.2426 33.921 26.3281V32.6335H33.9172Z" fill="#202020"/>
</g>
<defs>
<clipPath id="clip0_0_159">
<rect width="19.6491" height="19.6491" fill="white" transform="translate(15.5 15.439)"/>
</clipPath>
</defs>
</svg>
