<svg width="51" height="51" viewBox="0 0 51 51" fill="none" xmlns="http://www.w3.org/2000/svg">
<circle cx="25.7281" cy="25.2632" r="24.5614" stroke="#6D7D7D" stroke-width="1.40351"/>
<g clip-path="url(#clip0_0_163)">
<path d="M33.5328 21.2614C33.5452 21.4359 33.5452 21.6105 33.5452 21.785C33.5452 27.1087 29.4933 33.2428 22.0874 33.2428C19.8058 33.2428 17.6863 32.582 15.9034 31.435C16.2276 31.4724 16.5393 31.4849 16.8759 31.4849C18.7585 31.4849 20.4916 30.8491 21.8755 29.7644C20.1051 29.7269 18.6214 28.5675 18.1102 26.9716C18.3596 27.009 18.6089 27.0339 18.8708 27.0339C19.2323 27.0339 19.5939 26.984 19.9305 26.8968C18.0853 26.5227 16.7013 24.9019 16.7013 22.9445V22.8947C17.2374 23.1939 17.8609 23.3809 18.5216 23.4058C17.4369 22.6827 16.7263 21.4484 16.7263 20.052C16.7263 19.3039 16.9257 18.6182 17.2749 18.0198C19.2572 20.4634 22.237 22.0593 25.5783 22.2338C25.516 21.9346 25.4786 21.623 25.4786 21.3113C25.4786 19.092 27.274 17.2842 29.5057 17.2842C30.6652 17.2842 31.7124 17.7704 32.448 18.5559C33.3582 18.3813 34.2309 18.0447 35.0039 17.5834C34.7047 18.5185 34.0688 19.304 33.2335 19.8026C34.0439 19.7154 34.8294 19.4909 35.5525 19.1793C35.004 19.9772 34.3182 20.6878 33.5328 21.2614Z" fill="#202020"/>
</g>
<defs>
<clipPath id="clip0_0_163">
<rect width="19.6491" height="19.6491" fill="white" transform="translate(15.9034 15.439)"/>
</clipPath>
</defs>
</svg>
